<svg version="1.1" viewBox="0.0 0.0 153.6010498687664 72.0" fill="none" stroke="none" stroke-linecap="square" stroke-miterlimit="10" xmlns:xlink="http://www.w3.org/1999/xlink" xmlns="http://www.w3.org/2000/svg"><clipPath id="p.0"><path d="m0 0l153.60104 0l0 72.0l-153.60104 0l0 -72.0z" clip-rule="nonzero"/></clipPath><g clip-path="url(#p.0)"><path fill="#000000" fill-opacity="0.0" d="m0 0l153.60104 0l0 72.0l-153.60104 0z" fill-rule="evenodd"/><path fill="#000000" fill-opacity="0.0" d="m-121.56956 -21.131233l289.16534 0l0 64.755905l-289.16534 0z" fill-rule="evenodd"/><path fill="#8cb4ff" d="m27.081127 61.59439q-5.859375 0 -10.765625 -2.015625q-4.890625 -2.015625 -8.5 -5.703125q-3.609375 -3.6875 -5.59375 -8.734375q-1.96875 -5.0625 -1.96875 -11.0625q0 -5.859375 2.046875 -10.828125q2.0625 -4.984375 5.7812505 -8.671875q3.71875 -3.6875 8.734375 -5.734375q5.015625 -2.0468755 10.875 -2.0468755q3.796875 0 7.484375 1.03125q3.6875 1.0156255 6.765625 3.0000005q3.078125 1.96875 5.28125 4.703125l-7.140625 7.90625q-1.75 -1.828125 -3.734375 -3.15625q-1.96875 -1.328125 -4.140625 -2.046875q-2.15625 -0.71875 -4.59375 -0.71875q-3.265625 0 -6.125 1.21875q-2.84375 1.203125 -4.96875 3.375q-2.125 2.15625 -3.390625 5.234375q-1.25 3.078125 -1.25 6.8125q0 3.796875 1.21875 6.875q1.21875 3.078125 3.421875 5.25q2.203125 2.15625 5.28125 3.34375q3.078125 1.171875 6.796875 1.171875q2.4375 0 4.71875 -0.6875q2.28125 -0.6875 4.21875 -1.890625q1.9375 -1.21875 3.453125 -2.8125l5.625 8.890625q-1.90625 2.046875 -4.984375 3.71875q-3.078125 1.671875 -6.875 2.625q-3.796875 0.953125 -7.671875 0.953125z" fill-rule="nonzero"/><path fill="#000000" fill-opacity="0.0" d="m-54.170605 6.4278216l289.16534 0l0 64.755905l-289.16534 0z" fill-rule="evenodd"/><path fill="#fefefe" d="m37.064144 43.884697q-2.375 0 -4.21875 -1.015625q-1.8281231 -1.015625 -2.874998 -2.765625q-1.03125 -1.765625 -1.03125 -4.046875q0 -1.828125 0.578125 -3.3125q0.59375 -1.5 1.625 -2.59375q1.0468731 -1.109375 2.499998 -1.703125q1.453125 -0.609375 3.15625 -0.609375q1.5 0 2.78125 0.578125q1.296875 0.5625 2.25 1.5625q0.953125 1.0 1.46875 2.359375q0.515625 1.359375 0.484375 2.984375l-0.03125 1.28125l-12.578123 0l-0.671875 -2.40625l10.640623 0l-0.4375 0.5l0 -0.703125q-0.09375 -0.96875 -0.65625 -1.71875q-0.546875 -0.765625 -1.40625 -1.203125q-0.84375 -0.453125 -1.84375 -0.453125q-1.578125 0 -2.671875 0.609375q-1.078125 0.59375 -1.640625 1.765625q-0.5468731 1.15625 -0.5468731 2.84375q0 1.625 0.6718731 2.8125q0.671875 1.1875 1.90625 1.828125q1.234375 0.640625 2.84375 0.640625q1.140625 0 2.125 -0.375q0.984375 -0.375 2.125 -1.375l1.53125 2.140625q-0.71875 0.703125 -1.734375 1.234375q-1.0 0.515625 -2.140625 0.828125q-1.125 0.3125 -2.203125 0.3125zm10.061264 -0.296875l0 -21.703125l3.015625 0l0 21.703125l-3.015625 0zm7.3613586 0l0 -21.703125l3.015625 0l0 21.703125l-3.015625 0zm7.7988586 0l0 -15.390625l3.0156288 0l0 15.390625l-3.0156288 0zm1.46875 -18.796875q-0.96875 0 -1.5 -0.5q-0.53125 -0.5 -0.53125 -1.40625q0 -0.859375 0.546875 -1.375q0.546875 -0.53125 1.484375 -0.53125q0.9687538 0 1.4843788 0.5q0.53125 0.5 0.53125 1.40625q0 0.84375 -0.546875 1.375q-0.53125 0.53125 -1.4687538 0.53125zm11.325085 19.09375q-1.9374924 0 -3.4999924 -0.671875q-1.546875 -0.6875 -2.578125 -2.0l2.046875 -1.765625q0.890625 1.03125 1.921875 1.484375q1.0468674 0.453125 2.3749924 0.453125q0.515625 0 0.96875 -0.125q0.453125 -0.140625 0.796875 -0.390625q0.34375 -0.265625 0.515625 -0.625q0.171875 -0.375 0.171875 -0.828125q0 -0.75 -0.546875 -1.21875q-0.296875 -0.21875 -0.9375 -0.453125q-0.625 -0.25 -1.625 -0.515625q-1.7031174 -0.4375 -2.7968674 -1.0q-1.078125 -0.5625 -1.65625 -1.265625q-0.4375 -0.5625 -0.65625 -1.21875q-0.203125 -0.65625 -0.203125 -1.453125q0 -0.96875 0.421875 -1.765625q0.4375 -0.8125 1.1875 -1.40625q0.75 -0.609375 1.75 -0.921875q1.015625 -0.328125 2.1562424 -0.328125q1.09375 0 2.15625 0.296875q1.078125 0.28125 1.984375 0.84375q0.90625 0.5625 1.53125 1.328125l-1.734375 1.90625q-0.5625 -0.5625 -1.21875 -0.984375q-0.65625 -0.421875 -1.34375 -0.65625q-0.671875 -0.25 -1.21875 -0.25q-0.625 0 -1.125 0.125q-0.48436737 0.109375 -0.8281174 0.359375q-0.34375 0.234375 -0.515625 0.59375q-0.171875 0.34375 -0.171875 0.78125q0.03125 0.375 0.1875 0.71875q0.15625 0.328125 0.453125 0.5625q0.328125 0.234375 0.9687424 0.5q0.640625 0.265625 1.640625 0.5q1.46875 0.390625 2.421875 0.84375q0.953125 0.453125 1.515625 1.03125q0.578125 0.5625 0.8125 1.296875q0.234375 0.734375 0.234375 1.640625q0 1.3125 -0.75 2.359375q-0.734375 1.046875 -2.0 1.640625q-1.265625 0.578125 -2.8125 0.578125zm9.376282 4.953125l-1.109375 -1.34375q1.03125 -0.59375 1.671875 -1.359375q0.640625 -0.765625 0.640625 -1.3125q0 -0.296875 -0.15625 -0.578125q-0.140625 -0.28125 -0.609375 -0.78125q-0.578125 -0.546875 -0.765625 -0.921875q-0.171875 -0.390625 -0.171875 -0.828125q0 -0.703125 0.5 -1.125q0.5 -0.4375 1.296875 -0.4375q0.734375 0 1.328125 0.4375q0.609375 0.421875 0.9375 1.171875q0.34375 0.75 0.34375 1.703125q0 0.890625 -0.296875 1.703125q-0.296875 0.828125 -0.828125 1.53125q-0.515625 0.703125 -1.21875 1.25q-0.703125 0.5625 -1.5625 0.890625zm16.808105 -4.921875q-0.96875 0 -1.5 -0.578125q-0.53125 -0.578125 -0.53125 -1.625q0 -0.96875 0.5625 -1.578125q0.5625 -0.625 1.46875 -0.625q0.96875 0 1.484375 0.578125q0.53125 0.5625 0.53125 1.625q0 0.96875 -0.5625 1.59375q-0.546875 0.609375 -1.453125 0.609375zm12.374329 -0.03125q-2.25 0 -4.03125 -1.03125q-1.78125 -1.046875 -2.8125 -2.84375q-1.015625 -1.8125 -1.015625 -4.140625q0 -2.3125 1.015625 -4.109375q1.03125 -1.8125 2.8125 -2.84375q1.78125 -1.046875 4.03125 -1.046875q2.234375 0 4.0 1.046875q1.78125 1.03125 2.796875 2.84375q1.03125 1.796875 1.03125 4.109375q0 2.328125 -1.03125 4.140625q-1.015625 1.796875 -2.796875 2.84375q-1.765625 1.03125 -4.0 1.03125zm0 -2.765625q1.375 0 2.453125 -0.6875q1.09375 -0.6875 1.703125 -1.875q0.625 -1.1875 0.59375 -2.6875q0.03125 -1.515625 -0.59375 -2.703125q-0.609375 -1.1875 -1.703125 -1.859375q-1.078125 -0.6875 -2.453125 -0.6875q-1.375 0 -2.484375 0.703125q-1.09375 0.6875 -1.71875 1.875q-0.609375 1.1875 -0.578125 2.671875q-0.03125 1.5 0.578125 2.6875q0.625 1.1875 1.71875 1.875q1.109375 0.6875 2.484375 0.6875zm11.114899 2.46875l0 -15.390625l3.046875 0l0 4.828125l-0.28125 -1.171875q0.3125 -1.109375 1.0937424 -2.015625q0.78125 -0.90625 1.78125 -1.4375q1.015625 -0.53125 2.109375 -0.53125q0.5 0 0.953125 0.09375q0.453125 0.078125 0.71875 0.203125l-0.796875 3.28125q-0.359375 -0.140625 -0.78125 -0.25q-0.421875 -0.109375 -0.828125 -0.109375q-0.796875 0 -1.515625 0.3125q-0.71875 0.3125 -1.265625 0.859375q-0.53125 0.53125 -0.859375 1.25q-0.32811737 0.71875 -0.32811737 1.578125l0 8.5l-3.046875 0zm18.26986 6.75q-1.640625 0 -3.265625 -0.515625q-1.625 -0.515625 -2.625 -1.34375l1.109375 -2.34375q0.59375 0.4375 1.375 0.78125q0.796875 0.34375 1.671875 0.53125q0.890625 0.1875 1.734375 0.1875q1.609375 0 2.6875 -0.53125q1.09375 -0.53125 1.65625 -1.5625q0.5625 -1.015625 0.5625 -2.546875l0 -2.953125l0.3125 0.203125q-0.140625 0.90625 -0.953125 1.75q-0.796875 0.828125 -2.0 1.359375q-1.203125 0.53125 -2.46875 0.53125q-2.203125 0 -3.921875 -1.03125q-1.703125 -1.046875 -2.703125 -2.84375q-1.0 -1.8125 -1.0 -4.140625q0 -2.3125 0.984375 -4.109375q0.984375 -1.8125 2.6875 -2.84375q1.71875 -1.046875 3.859375 -1.046875q0.890625 0 1.703125 0.21875q0.828125 0.21875 1.53125 0.625q0.703125 0.390625 1.25 0.859375q0.5625 0.46875 0.90625 1.0q0.359375 0.515625 0.453125 0.984375l-0.640625 0.234375l0 -3.59375l3.015625 0l0 14.453125q0 1.84375 -0.546875 3.265625q-0.53125 1.421875 -1.5625 2.40625q-1.03125 0.984375 -2.5 1.5q-1.46875 0.515625 -3.3125 0.515625zm0.125 -9.25q1.4375 0 2.546875 -0.671875q1.109375 -0.671875 1.71875 -1.84375q0.625 -1.171875 0.625 -2.703125q0 -1.515625 -0.640625 -2.703125q-0.625 -1.1875 -1.71875 -1.859375q-1.09375 -0.6875 -2.53125 -0.6875q-1.40625 0 -2.515625 0.703125q-1.09375 0.6875 -1.734375 1.875q-0.625 1.1875 -0.625 2.671875q0 1.5 0.625 2.6875q0.640625 1.1875 1.734375 1.859375q1.109375 0.671875 2.515625 0.671875z" fill-rule="nonzero"/></g></svg>