<svg version="1.1" viewBox="0.0 0.0 100.0 100.0" fill="none" stroke="none" stroke-linecap="square" stroke-miterlimit="10" xmlns:xlink="http://www.w3.org/1999/xlink" xmlns="http://www.w3.org/2000/svg"><clipPath id="p.0"><path d="m0 0l100.0 0l0 100.0l-100.0 0l0 -100.0z" clip-rule="nonzero"/></clipPath><g clip-path="url(#p.0)"><path fill="#000000" fill-opacity="0.0" d="m0 0l100.0 0l0 100.0l-100.0 0z" fill-rule="evenodd"/><path fill="#000000" fill-opacity="0.0" d="m-99.05249 -30.779528l289.16534 0l0 64.755905l-289.16534 0z" fill-rule="evenodd"/><path fill="#8cb4ff" d="m51.813747 92.03235q-9.046875 0 -16.609375 -3.109375q-7.5625 -3.109375 -13.140625 -8.796875q-5.578125 -5.6875 -8.624999 -13.484375q-3.046875 -7.8125 -3.046875 -17.078125q0 -9.03125 3.15625 -16.71875q3.171874 -7.687502 8.921874 -13.375002q5.75 -5.6875 13.484375 -8.859375q7.75 -3.171875 16.796875 -3.171875q5.859375 0 11.546879 1.59375q5.6875 1.578125 10.4375 4.625q4.765625 3.046875 8.15625 7.28125l-11.015625 12.203127q-2.703125 -2.828127 -5.765625 -4.875002q-3.0468788 -2.046875 -6.390629 -3.15625q-3.34375 -1.125 -7.09375 -1.125q-5.046875 0 -9.453125 1.875q-4.390625 1.875 -7.671875 5.21875q-3.28125 3.343752 -5.21875 8.093752q-1.9375 4.75 -1.9375 10.5q0 5.875 1.875 10.625q1.875 4.75 5.28125 8.09375q3.40625 3.34375 8.15625 5.171875q4.75 1.8125 10.5 1.8125q3.75 0 7.265625 -1.046875q3.5312538 -1.0625 6.515629 -2.9375q3.0 -1.890625 5.34375 -4.34375l8.671875 13.71875q-2.921875 3.171875 -7.6875 5.75q-4.75 2.578125 -10.609379 4.046875q-5.859375 1.46875 -11.84375 1.46875z" fill-rule="nonzero"/></g></svg>